<svg width="134" height="32" viewBox="0 0 134 32" fill="none" xmlns="http://www.w3.org/2000/svg">
<path d="M1.18139 23.7381C1.12888 23.6826 1.06555 23.6384 0.995299 23.6083C0.925049 23.5782 0.849369 23.5628 0.772939 23.5631C0.6955 23.5618 0.61858 23.5759 0.546662 23.6047C0.474744 23.6334 0.40927 23.6762 0.354054 23.7305C0.298838 23.7848 0.254989 23.8496 0.22506 23.921C0.195131 23.9924 0.179717 24.0691 0.179728 24.1466C0.178816 24.2226 0.193438 24.2981 0.222701 24.3683C0.251963 24.4386 0.295253 24.5021 0.349914 24.555L4.94974 29.1645C5.0621 29.2729 5.21183 29.3338 5.3679 29.3347C5.48226 29.3356 5.59418 29.3017 5.68882 29.2375C5.76469 29.1903 5.82869 29.1262 5.8759 29.0504C5.92311 28.9745 5.95227 28.8888 5.96111 28.7999C5.97012 28.7154 5.95994 28.63 5.93131 28.55C5.90268 28.47 5.85636 28.3975 5.79579 28.3379L1.18139 23.7381Z" fill="#322B5F"/>
<path d="M9.65731 19.3475C9.65667 19.2575 9.6383 19.1684 9.60326 19.0855C9.56821 19.0026 9.51718 18.9273 9.45306 18.8641C9.38895 18.8009 9.31301 18.7509 9.22958 18.7171C9.14616 18.6832 9.05688 18.6661 8.96684 18.6668C8.78585 18.6668 8.6122 18.7383 8.48376 18.8659C8.35533 18.9934 8.28253 19.1665 8.28125 19.3475C8.28253 19.5285 8.35533 19.7016 8.48376 19.8292C8.6122 19.9567 8.78585 20.0282 8.96684 20.0282C9.05688 20.0289 9.14616 20.0118 9.22958 19.9779C9.31301 19.944 9.38895 19.8941 9.45306 19.8309C9.51718 19.7677 9.56821 19.6924 9.60326 19.6095C9.6383 19.5266 9.65667 19.4375 9.65731 19.3475Z" fill="#322B5F"/>
<path d="M27.3705 1.02444e-05C26.1311 -0.00258039 24.9413 0.486271 24.0618 1.35943C23.1822 2.23259 22.6847 3.41884 22.6783 4.65818V15.8417L22.3428 15.5013C22.2358 15.3992 11.9081 4.91588 8.378 1.55597C7.41679 0.606354 6.12599 0.0646047 4.77497 0.0437699C3.73198 0.0400385 2.72054 0.401262 1.91588 1.06487C1.42052 1.46259 1.01401 1.95972 0.722558 2.52419C0.431109 3.08866 0.261204 3.70795 0.22378 4.34212C0.188 5.00902 0.289989 5.67615 0.523391 6.3019C0.756793 6.92766 1.1166 7.49861 1.58038 7.97918C4.42488 10.9404 8.81561 15.2728 13.0653 19.4496C17.0768 23.3978 21.2196 27.4822 23.8841 30.2441C24.3421 30.7196 24.8911 31.0981 25.4984 31.3571C26.1057 31.616 26.7589 31.7501 27.4191 31.7514C28.5132 31.7528 29.5725 31.3669 30.4095 30.6622C31.344 29.876 31.9296 28.7521 32.0384 27.5357C32.0574 27.3743 32.0672 27.212 32.0675 27.0495V4.68248C32.0611 3.4423 31.5629 2.25532 30.6824 1.38202C29.8018 0.508724 28.6107 0.020436 27.3705 0.0243162" fill="#322B5F"/>
<path d="M9.44253 23.5584L1.17647 15.2923C1.12328 15.2377 1.05982 15.1941 0.989722 15.164C0.919627 15.134 0.844287 15.1181 0.76803 15.1173C0.690591 15.116 0.613671 15.1301 0.541753 15.1589C0.469835 15.1876 0.404361 15.2304 0.349145 15.2847C0.293929 15.339 0.250066 15.4038 0.220136 15.4752C0.190207 15.5466 0.174808 15.6233 0.174819 15.7008V15.7251C0.174285 15.8004 0.189096 15.875 0.218356 15.9444C0.247615 16.0138 0.290713 16.0765 0.345005 16.1286L8.61105 24.3947C8.66465 24.4502 8.72887 24.4942 8.79988 24.5243C8.87089 24.5544 8.94724 24.5698 9.02436 24.5697C9.11584 24.5731 9.20692 24.5561 9.29101 24.5199C9.37511 24.4838 9.45012 24.4294 9.5106 24.3607C9.56834 24.2951 9.61022 24.2172 9.63298 24.1329C9.65575 24.0485 9.65879 23.9601 9.64188 23.8744C9.62013 23.7509 9.56069 23.6371 9.4717 23.5486" fill="#322B5F"/>
<path d="M2.74678 21.2486C2.63756 21.1379 2.48896 21.0749 2.33348 21.0735C2.25644 21.0729 2.18005 21.0875 2.1087 21.1165C2.03734 21.1456 1.97244 21.1884 1.91774 21.2427C1.86305 21.2969 1.81963 21.3615 1.79 21.4326C1.76038 21.5037 1.74513 21.58 1.74513 21.657V21.6813C1.7446 21.7566 1.75941 21.8312 1.78867 21.9006C1.81793 21.97 1.86102 22.0327 1.91531 22.0849L8.30449 28.4838C8.4152 28.5952 8.56559 28.6581 8.72265 28.6588C8.85034 28.6611 8.97515 28.6208 9.07731 28.5442C9.17948 28.4675 9.25316 28.359 9.28669 28.2358V28.1872C9.30927 28.0922 9.3068 27.993 9.27953 27.8992C9.25226 27.8054 9.20111 27.7204 9.1311 27.6523L2.74678 21.2486Z" fill="#322B5F"/>
<path d="M1.0898 28.0705C1.00202 27.9782 0.881563 27.9241 0.754305 27.9197C0.702768 27.9187 0.651636 27.9291 0.604567 27.9501C0.557497 27.9711 0.515651 28.0022 0.482013 28.0413C0.451151 28.0825 0.429889 28.1301 0.419793 28.1806C0.409698 28.231 0.41101 28.2831 0.423652 28.333C0.62438 29.1803 1.04461 29.9597 1.64208 30.593C2.23956 31.2264 2.99323 31.6912 3.82733 31.9409C3.93155 31.9661 4.03705 31.9856 4.14338 31.9993H4.21146C4.27591 32.0034 4.34 31.9868 4.39427 31.9518C4.44854 31.9168 4.49014 31.8652 4.51293 31.8048C4.54618 31.7216 4.55282 31.6302 4.53191 31.5431C4.51101 31.456 4.4636 31.3776 4.39623 31.3186L1.0898 28.0705Z" fill="#322B5F"/>
<path d="M6.83148 17.9908C6.88563 18.0468 6.95065 18.0913 7.02254 18.1214C7.09444 18.1515 7.17171 18.1666 7.24964 18.1658C7.32772 18.1671 7.40527 18.1529 7.47778 18.1239C7.55029 18.0949 7.6163 18.0518 7.67197 17.997C7.72764 17.9422 7.77184 17.8769 7.80202 17.8049C7.83219 17.7329 7.84773 17.6556 7.84772 17.5775C7.84818 17.5008 7.83336 17.4247 7.80415 17.3537C7.77493 17.2828 7.73189 17.2184 7.67753 17.1642L1.18139 10.668C1.12888 10.6125 1.06555 10.5683 0.995299 10.5382C0.925049 10.5081 0.849369 10.4927 0.772939 10.493C0.6955 10.4917 0.61858 10.5058 0.546662 10.5346C0.474744 10.5633 0.40927 10.6061 0.354054 10.6604C0.298838 10.7147 0.254989 10.7795 0.22506 10.8509C0.195131 10.9224 0.179717 10.999 0.179728 11.0765C0.178816 11.1526 0.193438 11.228 0.222701 11.2983C0.251963 11.3685 0.295253 11.432 0.349914 11.4849L6.83148 17.9908Z" fill="#322B5F"/>
<path d="M7.04104 29.821C6.85876 29.821 6.68387 29.8931 6.55452 30.0215C6.42518 30.15 6.35187 30.3244 6.35059 30.5066C6.35122 30.5967 6.36959 30.6857 6.40463 30.7686C6.43967 30.8516 6.4907 30.9268 6.55482 30.99C6.61894 31.0532 6.69487 31.1032 6.7783 31.137C6.86173 31.1709 6.95101 31.188 7.04104 31.1874C7.13108 31.188 7.22035 31.1709 7.30378 31.137C7.38721 31.1032 7.46314 31.0532 7.52726 30.99C7.59138 30.9268 7.64242 30.8516 7.67746 30.7686C7.7125 30.6857 7.73087 30.5967 7.7315 30.5066C7.73022 30.3244 7.6569 30.15 7.52756 30.0215C7.39821 29.8931 7.22333 29.821 7.04104 29.821Z" fill="#322B5F"/>
<path d="M0.690465 20.6408C0.871458 20.6408 1.04511 20.5693 1.17354 20.4418C1.30198 20.3142 1.37477 20.1411 1.37606 19.9601C1.37606 19.8703 1.35829 19.7814 1.32378 19.6985C1.28927 19.6156 1.23869 19.5403 1.17496 19.477C1.11123 19.4137 1.03561 19.3637 0.95246 19.3298C0.869307 19.2959 0.780269 19.2787 0.690465 19.2794C0.600255 19.2781 0.510689 19.2947 0.426972 19.3284C0.343256 19.362 0.267063 19.4119 0.202817 19.4753C0.138571 19.5386 0.0875538 19.6141 0.0527372 19.6973C0.0179206 19.7806 -9.203e-06 19.8699 3.54371e-09 19.9601C0.000636281 20.0501 0.0189994 20.1392 0.054043 20.2221C0.0890866 20.305 0.140126 20.3803 0.204242 20.4435C0.268357 20.5067 0.344303 20.5566 0.427729 20.5905C0.511155 20.6244 0.600431 20.6415 0.690465 20.6408Z" fill="#322B5F"/>
<path d="M50.0778 10.4474C49.0233 10.3879 47.9741 10.6349 47.0569 11.1586C46.1397 11.6824 45.3937 12.4605 44.9091 13.3989V10.71H42.5557V26.6975H44.9091V17.1429C44.8993 17.0021 44.8993 16.8607 44.9091 16.7199C44.9731 15.5742 45.4895 14.5008 46.3448 13.7357C47.2001 12.9707 48.3242 12.5767 49.47 12.6404C52.0422 12.6404 53.6614 14.3227 53.6614 16.9825V26.7072H56.0148V16.4962C56.0148 12.8446 53.7294 10.4669 50.0778 10.4669" fill="#322B5F"/>
<path d="M72.5178 13.0831C71.594 11.4445 69.722 10.224 66.8726 10.1657C65.7987 10.1473 64.7329 10.3541 63.7438 10.7729C62.7547 11.1916 61.8644 11.813 61.1301 12.5969C60.3538 13.3989 59.7457 14.348 59.3416 15.3885C58.9374 16.4289 58.7454 17.5397 58.7767 18.6554C58.75 19.7706 58.9442 20.88 59.3481 21.9198C59.752 22.9596 60.3576 23.9092 61.1301 24.7139C61.864 25.4983 62.7543 26.12 63.7434 26.5388C64.7326 26.9576 65.7986 27.1642 66.8726 27.1451C69.6977 27.1451 71.5745 25.9393 72.5178 24.325V26.6929H74.8664V10.7005H72.5178V13.0831ZM71.0883 23.2066C70.5486 23.7927 69.8908 24.2578 69.1583 24.5712C68.4258 24.8847 67.6352 25.0394 66.8386 25.0251C66.0635 25.0391 65.2944 24.8876 64.5825 24.5807C63.8706 24.2738 63.2324 23.8186 62.7104 23.2455C61.6166 22.0058 61.0374 20.3953 61.0912 18.7429C61.0327 17.0971 61.6129 15.4925 62.7104 14.2647C63.2185 13.6676 63.8517 13.1896 64.5651 12.8644C65.2785 12.5392 66.0546 12.3749 66.8386 12.3829C67.6411 12.369 68.4371 12.5301 69.171 12.8551C69.9049 13.1801 70.5592 13.6611 71.0883 14.2647C71.6609 14.8506 72.1103 15.5453 72.4101 16.3078C72.7099 17.0702 72.854 17.885 72.8339 18.704C72.8586 19.531 72.7192 20.3547 72.4238 21.1276C72.1284 21.9004 71.6827 22.607 71.1126 23.2066" fill="#322B5F"/>
<path d="M84.9019 23.5518L79.597 10.7102H77.1221L83.7933 26.4352C83.8877 26.6561 84.0449 26.8444 84.2455 26.9767C84.446 27.109 84.6811 27.1794 84.9213 27.1791C85.1616 27.1794 85.3966 27.109 85.5972 26.9767C85.7978 26.8444 85.955 26.6561 86.0494 26.4352L92.7206 10.7102H90.2116L84.9019 23.5518Z" fill="#322B5F"/>
<path d="M97.3641 10.7102H95.0059V26.6977H97.3641V10.7102Z" fill="#322B5F"/>
<path d="M97.2233 5.27395C96.9282 4.99805 96.5359 4.85031 96.1322 4.86307C95.7285 4.87583 95.3462 5.04804 95.0692 5.34202L95.0157 5.39551C94.7332 5.694 94.5803 6.09214 94.5903 6.503C94.6003 6.91387 94.7725 7.30408 95.0692 7.58845C95.3663 7.87861 95.765 8.04105 96.1803 8.04105C96.5955 8.04105 96.9943 7.87861 97.2913 7.58845C97.2913 7.58845 97.2913 7.58845 97.3156 7.56413C97.6061 7.26573 97.7666 6.86446 97.762 6.44806C97.7575 6.03166 97.5882 5.634 97.2913 5.34202L97.2233 5.27395Z" fill="#322B5F"/>
<path d="M108.49 10.4477C107.441 10.3955 106.4 10.6459 105.489 11.1692C104.579 11.6925 103.838 12.4666 103.355 13.3992V10.7103H101.007V26.6978H103.355V17.1432C103.348 17.012 103.348 16.8805 103.355 16.7494C103.382 16.1821 103.521 15.6257 103.763 15.1121C104.005 14.5984 104.346 14.1376 104.766 13.7559C105.187 13.3742 105.679 13.0793 106.213 12.8879C106.748 12.6965 107.315 12.6125 107.882 12.6406C110.459 12.6406 112.078 14.323 112.078 16.9827V26.7075H114.432V16.4965C114.432 12.8449 112.137 10.4672 108.485 10.4672" fill="#322B5F"/>
<path d="M130.968 10.7005V13.0831C130.044 11.4444 128.172 10.224 125.323 10.1656C124.248 10.1477 123.182 10.3548 122.192 10.7735C121.202 11.1922 120.311 11.8132 119.576 12.5968C118.8 13.3991 118.193 14.3484 117.789 15.3888C117.386 16.4293 117.195 17.5399 117.227 18.6553C117.201 19.7701 117.394 20.8791 117.797 21.9188C118.2 22.9585 118.805 23.9083 119.576 24.7139C120.31 25.4984 121.202 26.1201 122.192 26.5389C123.182 26.9577 124.248 27.1642 125.323 27.1451C128.143 27.1451 130.025 25.9392 130.968 24.3249V26.6929H133.317V10.7005H130.968ZM129.539 23.2065C128.998 23.793 128.34 24.2583 127.606 24.5717C126.873 24.8852 126.081 25.0397 125.284 25.0251C124.509 25.0394 123.74 24.888 123.028 24.5811C122.316 24.2742 121.678 23.8188 121.156 23.2454C120.061 22.0066 119.484 20.395 119.542 18.7429C119.479 17.1018 120.058 15.5009 121.156 14.2792C121.663 13.6795 122.295 13.1987 123.009 12.871C123.722 12.5432 124.499 12.3766 125.284 12.3829C126.088 12.3713 126.886 12.535 127.62 12.8624C128.355 13.1899 129.01 13.6733 129.539 14.2792C130.1 14.8705 130.537 15.5676 130.826 16.3297C131.115 17.0919 131.249 17.904 131.221 18.7186C131.251 19.5429 131.118 20.365 130.829 21.1377C130.54 21.9104 130.102 22.6184 129.539 23.2211" fill="#322B5F"/>
</svg>
